<svg width="1133" height="312" viewBox="0 0 1133 312" fill="none" xmlns="http://www.w3.org/2000/svg">
<path d="M315.716 200.008C315.579 199.602 315.198 199.328 314.769 199.328H277.611C277.182 199.328 276.801 199.602 276.664 200.008L270.936 216.978C270.799 217.384 270.418 217.658 269.989 217.658H245.763C245.07 217.658 244.587 216.971 244.822 216.319L281.516 114.547C281.659 114.15 282.035 113.886 282.457 113.886H310.218C310.639 113.886 311.016 114.15 311.158 114.547L347.852 216.319C348.087 216.971 347.604 217.658 346.911 217.658H322.391C321.962 217.658 321.581 217.384 321.444 216.978L315.716 200.008ZM307.613 179.815C308.297 179.815 308.779 179.144 308.56 178.496L297.143 144.65C296.836 143.741 295.55 143.743 295.247 144.653L283.961 178.499C283.745 179.146 284.227 179.815 284.91 179.815H307.613Z" fill="#DBD8FC"/>
<path d="M413.048 217.658C412.683 217.658 412.347 217.459 412.172 217.139L391.235 179.004C391.059 178.684 390.723 178.485 390.359 178.485H385.911C385.359 178.485 384.911 178.933 384.911 179.485V216.658C384.911 217.21 384.463 217.658 383.911 217.658H360.722C360.17 217.658 359.722 217.21 359.722 216.658V114.886C359.722 114.334 360.17 113.886 360.722 113.886H401.998C410.149 113.886 417.072 115.315 422.768 118.173C428.562 121.031 432.882 124.973 435.73 129.999C438.578 134.926 440.002 140.445 440.002 146.555C440.002 153.453 438.038 159.613 434.11 165.033C430.487 170.16 425.194 173.876 418.232 176.182C417.619 176.385 417.335 177.1 417.659 177.659L440.014 216.156C440.401 216.823 439.92 217.658 439.149 217.658H413.048ZM384.911 159.598C384.911 160.15 385.359 160.598 385.911 160.598H400.525C405.14 160.598 408.577 159.465 410.836 157.198C413.193 154.932 414.371 151.729 414.371 147.59C414.371 143.648 413.193 140.543 410.836 138.277C408.577 136.01 405.14 134.877 400.525 134.877H385.911C385.359 134.877 384.911 135.325 384.911 135.877V159.598Z" fill="#DBD8FC"/>
<path d="M451.542 165.624C451.542 155.375 453.752 146.259 458.171 138.277C462.59 130.196 468.728 123.938 476.584 119.503C484.538 114.97 493.523 112.703 503.54 112.703C515.815 112.703 526.323 115.955 535.063 122.46C543.476 128.721 549.205 137.173 552.249 147.817C552.429 148.447 551.951 149.068 551.296 149.068H525.531C525.145 149.068 524.794 148.845 524.621 148.5C522.575 144.443 519.722 141.33 516.061 139.164C512.329 136.897 508.057 135.764 503.245 135.764C495.487 135.764 489.203 138.474 484.391 143.894C479.579 149.314 477.173 156.558 477.173 165.624C477.173 174.691 479.579 181.934 484.391 187.354C489.203 192.774 495.487 195.484 503.245 195.484C508.057 195.484 512.329 194.351 516.061 192.085C519.722 189.918 522.575 186.806 524.621 182.748C524.794 182.404 525.145 182.18 525.531 182.18H551.296C551.951 182.18 552.429 182.801 552.249 183.431C549.205 194.075 543.476 202.528 535.063 208.789C526.323 215.194 515.815 218.397 503.54 218.397C493.523 218.397 484.538 216.18 476.584 211.745C468.728 207.212 462.59 200.954 458.171 192.972C453.752 184.989 451.542 175.873 451.542 165.624Z" fill="#DBD8FC"/>
<path d="M636.647 218.693C629.086 218.693 622.31 217.461 616.32 214.997C610.329 212.533 605.517 208.887 601.884 204.058C598.528 199.475 596.677 194.003 596.329 187.644C596.299 187.081 596.752 186.615 597.316 186.615H622.192C622.705 186.615 623.132 187.004 623.206 187.512C623.704 190.921 624.993 193.579 627.073 195.484C629.331 197.455 632.277 198.441 635.911 198.441C639.642 198.441 642.589 197.603 644.749 195.928C646.909 194.154 647.99 191.74 647.99 188.685C647.99 186.122 647.106 184.004 645.338 182.328C643.669 180.653 641.557 179.273 639.004 178.189C636.549 177.105 633.014 175.873 628.398 174.494C621.721 172.424 616.27 170.355 612.048 168.285C607.825 166.215 604.192 163.16 601.147 159.12C598.103 155.079 596.581 149.807 596.581 143.303C596.581 133.645 600.067 126.106 607.04 120.686C614.012 115.167 623.096 112.408 634.29 112.408C645.682 112.408 654.864 115.167 661.836 120.686C668.556 125.91 672.266 133.148 672.965 142.4C673.008 142.971 672.551 143.451 671.979 143.451H646.723C646.194 143.451 645.76 143.037 645.696 142.511C645.34 139.608 644.141 137.31 642.097 135.616C639.839 133.645 636.942 132.659 633.407 132.659C630.362 132.659 627.907 133.497 626.042 135.173C624.176 136.749 623.243 139.065 623.243 142.12C623.243 145.471 624.814 148.082 627.956 149.955C631.099 151.827 636.009 153.848 642.687 156.016C649.364 158.282 654.766 160.45 658.89 162.52C663.113 164.589 666.746 167.595 669.79 171.537C672.835 175.479 674.357 180.554 674.357 186.763C674.357 192.676 672.835 198.047 669.79 202.876C666.844 207.705 662.523 211.548 656.828 214.406C651.132 217.264 644.405 218.693 636.647 218.693Z" fill="#DBD8FC"/>
<path d="M763.246 113.886C763.798 113.886 764.246 114.334 764.246 114.886V133.138C764.246 133.69 763.798 134.138 763.246 134.138H737.847C737.295 134.138 736.847 134.585 736.847 135.138V216.658C736.847 217.21 736.4 217.658 735.847 217.658H712.659C712.107 217.658 711.659 217.21 711.659 216.658V135.138C711.659 134.585 711.211 134.138 710.659 134.138H685.26C684.708 134.138 684.26 133.69 684.26 133.138V114.886C684.26 114.334 684.708 113.886 685.26 113.886H763.246Z" fill="#DBD8FC"/>
<path d="M800.634 113.886C801.186 113.886 801.634 114.334 801.634 114.886V175.972C801.634 182.18 803.156 186.96 806.2 190.311C809.245 193.661 813.713 195.337 819.605 195.337C825.497 195.337 830.014 193.661 833.157 190.311C836.299 186.96 837.87 182.18 837.87 175.972V114.886C837.87 114.334 838.318 113.886 838.87 113.886H862.059C862.611 113.886 863.059 114.334 863.059 114.886V175.824C863.059 185.088 861.095 192.922 857.167 199.328C853.239 205.734 847.936 210.563 841.258 213.815C834.679 217.067 827.314 218.693 819.163 218.693C811.012 218.693 803.696 217.116 797.215 213.962C790.832 210.71 785.775 205.881 782.043 199.476C778.311 192.972 776.445 185.088 776.445 175.824V114.886C776.445 114.334 776.893 113.886 777.445 113.886H800.634Z" fill="#DBD8FC"/>
<path d="M919.487 113.886C930.388 113.886 939.913 116.054 948.064 120.39C956.215 124.726 962.5 130.836 966.919 138.72C971.436 146.506 973.695 155.523 973.695 165.772C973.695 175.923 971.436 184.94 966.919 192.824C962.5 200.708 956.166 206.818 947.917 211.154C939.766 215.49 930.29 217.658 919.487 217.658H881.747C881.195 217.658 880.747 217.21 880.747 216.658V114.886C880.747 114.334 881.195 113.886 881.747 113.886H919.487ZM917.867 195.78C927.393 195.78 934.807 193.169 940.11 187.945C945.413 182.722 948.064 175.331 948.064 165.772C948.064 156.213 945.413 148.772 940.11 143.451C934.807 138.129 927.393 135.468 917.867 135.468H906.936C906.383 135.468 905.936 135.916 905.936 136.468V194.78C905.936 195.332 906.383 195.78 906.936 195.78H917.867Z" fill="#DBD8FC"/>
<path d="M1011.96 113.886C1012.51 113.886 1012.96 114.334 1012.96 114.886V216.658C1012.96 217.21 1012.51 217.658 1011.96 217.658H988.771C988.219 217.658 987.771 217.21 987.771 216.658V114.886C987.771 114.334 988.219 113.886 988.771 113.886H1011.96Z" fill="#DBD8FC"/>
<path d="M1080.12 218.693C1070.4 218.693 1061.46 216.426 1053.31 211.893C1045.26 207.36 1038.82 201.053 1034.01 192.972C1029.3 184.792 1026.94 175.627 1026.94 165.476C1026.94 155.326 1029.3 146.21 1034.01 138.129C1038.82 130.048 1045.26 123.741 1053.31 119.208C1061.46 114.674 1070.4 112.408 1080.12 112.408C1089.84 112.408 1098.73 114.674 1106.78 119.208C1114.93 123.741 1121.31 130.048 1125.93 138.129C1130.64 146.21 1133 155.326 1133 165.476C1133 175.627 1130.64 184.792 1125.93 192.972C1121.22 201.053 1114.83 207.36 1106.78 211.893C1098.73 216.426 1089.84 218.693 1080.12 218.693ZM1080.12 195.632C1088.37 195.632 1094.95 192.873 1099.86 187.354C1104.87 181.835 1107.37 174.543 1107.37 165.476C1107.37 156.311 1104.87 149.019 1099.86 143.598C1094.95 138.08 1088.37 135.32 1080.12 135.32C1071.77 135.32 1065.09 138.03 1060.09 143.451C1055.18 148.871 1052.72 156.213 1052.72 165.476C1052.72 174.641 1055.18 181.983 1060.09 187.502C1065.09 192.922 1071.77 195.632 1080.12 195.632Z" fill="#DBD8FC"/>
<path d="M139.914 350.258C140.086 351.419 138.463 351.877 138.004 350.796L67.8836 185.732C67.6034 185.072 68.0875 184.341 68.804 184.341H143.116C143.835 184.341 144.319 183.604 144.034 182.943L106.05 95.2241C105.709 94.4372 104.601 94.416 104.23 95.1892L44.4183 219.968C44.252 220.315 43.9014 220.535 43.5166 220.535H1.58175C0.847252 220.535 0.363375 219.77 0.678392 219.106L104.227 1.00309C104.597 0.224989 105.711 0.246818 106.05 1.03879L199.315 219.142C199.597 219.802 199.113 220.535 198.395 220.535H121.793C121.182 220.535 120.714 221.078 120.804 221.682L139.914 350.258Z" fill="#DBD8FC"/>
</svg>
